<svg width="32" height="32" viewBox="0 0 32 32" fill="none" xmlns="http://www.w3.org/2000/svg">
<g id="Content">
<rect x="0.1" y="0.1" width="31.8" height="31.8" rx="7.9" fill="white"/>
<rect x="0.1" y="0.1" width="31.8" height="31.8" rx="7.9" fill="url(#paint0_linear_6750_531)"/>
<g id="Logo Gajah">
<path id="Union" fill-rule="evenodd" clip-rule="evenodd" d="M13.526 5C11.6715 5 10.2098 5.49456 8.911 6.73751C7.59791 7.9941 7.06523 9.86693 7.0652 11.6704L7.06519 12.3748C7.06513 17.4347 11.1671 21.5393 16.227 21.5393H16.7939C17.8529 21.5393 18.6754 20.6163 18.5538 19.5642L18.4557 18.7158C18.3792 18.0546 17.8094 17.5692 17.1442 17.5471C14.3648 17.4549 11.8878 16.5817 11.8878 11.6705C11.8879 10.3596 12.3653 9.0581 13.8265 9.0581H18.1963C19.5175 9.0581 20.5889 10.1762 20.5889 11.5086V19.2988V19.98C20.5889 21.6539 19.2319 23.011 17.5579 23.011H15.0004C14.4567 23.011 14.016 23.4517 14.016 23.9953V26.0156C14.016 26.5593 14.4567 27 15.0004 27H18.8727C22.2206 27 24.9347 24.286 24.9347 20.938V10.4322C24.9347 7.43206 22.5026 5 19.5025 5H13.526Z" fill="#262B31"/>
<path id="Rectangle 2510" d="M17.179 14.2756C17.179 13.8191 17.5491 13.449 18.0056 13.449C18.4621 13.449 18.8322 13.8191 18.8322 14.2756C18.8322 14.7321 18.4621 15.1022 18.0056 15.1022C17.5491 15.1022 17.179 14.7321 17.179 14.2756Z" fill="#262B31"/>
</g>
<rect x="0.1" y="0.1" width="31.8" height="31.8" rx="7.9" stroke="#D0D5DD" stroke-width="0.2"/>
</g>
<defs>
<linearGradient id="paint0_linear_6750_531" x1="16" y1="0" x2="16" y2="32" gradientUnits="userSpaceOnUse">
<stop stop-color="white"/>
<stop offset="1" stop-color="#D0D5DD"/>
</linearGradient>
</defs>
</svg>
